<svg xmlns="http://www.w3.org/2000/svg" width="720" height="220" viewBox="0 0 720 220" role="img" aria-label="Ultra Fix TV Logo">
  <defs>
    <linearGradient id="teal" x1="0" x2="1">
      <stop offset="0" stop-color="#00C2A8"/>
      <stop offset="1" stop-color="#67E8F9"/>
    </linearGradient>
    <linearGradient id="violet" x1="0" x2="1">
      <stop offset="0" stop-color="#7C3AED"/>
      <stop offset="1" stop-color="#00C2A8"/>
    </linearGradient>
    <filter id="soft" x="-20%" y="-20%" width="140%" height="140%">
      <feDropShadow dx="0" dy="10" stdDeviation="10" flood-color="#07111F" flood-opacity=".22"/>
    </filter>
  </defs>
  <rect width="720" height="220" rx="30" fill="#F8FAFC"/>
  <g transform="translate(38 34)" filter="url(#soft)">
    <rect x="0" y="10" width="170" height="110" rx="24" fill="#07111F"/>
    <rect x="16" y="26" width="138" height="78" rx="16" fill="#FFFFFF"/>
    <path d="M82 31 52 75h27l-11 38 48-58H89l16-24z" fill="url(#teal)"/>
    <path d="M28 51h22M28 70h18M120 51h22M125 70h17" stroke="#7C3AED" stroke-width="7" stroke-linecap="round"/>
    <rect x="72" y="122" width="28" height="10" rx="5" fill="#07111F"/>
    <path d="M45 138h82" stroke="#07111F" stroke-width="8" stroke-linecap="round"/>
  </g>
  <g font-family="Arial Black, Arial, sans-serif">
    <text x="245" y="92" font-size="54" fill="#07111F" letter-spacing="1.5">ULTRA FIX TV</text>
    <text x="248" y="132" font-size="22" fill="url(#violet)" letter-spacing="4">DOORSTEP TV REPAIR</text>
    <text x="248" y="162" font-family="Arial, sans-serif" font-size="17" fill="#475569" letter-spacing="2">LED • LCD • OLED • ANDROID • SMART TV</text>
  </g>
</svg>