<svg xmlns="http://www.w3.org/2000/svg" viewBox="0 0 64 64" role="img" aria-label="WhatsApp"><circle cx="32" cy="32" r="30" fill="#25D366"/><path fill="#fff" d="M32.2 15c-9.2 0-16.6 7.4-16.6 16.5 0 2.9.8 5.8 2.3 8.2l-2.5 9.2 9.4-2.4c2.3 1.3 4.9 2 7.5 2h.1c9.1 0 16.5-7.4 16.5-16.5S41.3 15 32.2 15zm9.6 23.1c-.4 1.2-2.2 2.2-3 2.3-.8.1-1.8.2-2.9-.1-.7-.2-1.6-.5-2.8-1-4.9-2.1-8.1-7.1-8.3-7.4-.2-.3-2-2.7-2-5.1 0-2.4 1.3-3.6 1.7-4.1.5-.5 1.1-.6 1.4-.6h1c.3 0 .8-.1 1.2.8.4 1 .5 1.6 1.3 3.5.2.4.1.8-.1 1.1l-.6.8c-.2.2-.4.5-.2.9.2.4 1 1.7 2.2 2.8 1.5 1.3 2.7 1.8 3.1 2 .4.2.7.1 1-.1l1.3-1.6c.3-.4.7-.4 1.1-.2.4.1 2.8 1.3 3.2 1.6.4.2.7.3.8.5.1.2.1 1-.3 2.2z"/></svg>